<?xml version="1.0" encoding="UTF-8"?>
<svg width="24px" height="24px" viewBox="0 0 24 24" version="1.1" xmlns="http://www.w3.org/2000/svg">
    <path fill="#FFFFFF" d="M20.447,20.452h-3.554v-5.569c0-1.328-0.027-3.037-1.852-3.037c-1.853,0-2.136,1.445-2.136,2.939v5.667H9.351V9h3.414v1.561h0.046c0.477-0.9,1.637-1.85,3.37-1.85c3.601,0,4.267,2.37,4.267,5.455v6.286zM5.337,7.433c-1.144,0-2.063-0.926-2.063-2.065c0-1.138,0.92-2.063,2.063-2.063c1.14,0,2.064,0.925,2.064,2.063C7.401,6.507,6.477,7.433,5.337,7.433zM7.119,20.452H3.555V9h3.564V20.452z"/>
</svg> 